<?xml version="1.0" encoding="UTF-8"?>
<svg xmlns="http://www.w3.org/2000/svg" xmlns:xlink="http://www.w3.org/1999/xlink" width="64px" height="62px" viewBox="0 0 400 390" version="1.1">
<g id="surface1">
<path style=" stroke:none;fill-rule:nonzero;fill:rgb(100%,13.333334%,13.333334%);fill-opacity:1;" d="M 206.050781 0.0585938 C 204.0625 0.160156 202.039062 1.164062 200.660156 3.027344 C 199.421875 4.707031 199.195312 5.515625 199.113281 8.558594 C 199.074219 9.996094 198.996094 12.585938 198.941406 14.308594 C 198.886719 16.035156 198.9375 18.152344 199.050781 19.011719 C 199.167969 19.875 199.207031 21.335938 199.144531 22.246094 C 199.050781 23.660156 199.542969 28.148438 199.847656 28.730469 C 199.894531 28.820312 199.886719 30.574219 199.847656 32.621094 C 199.789062 35.773438 199.839844 36.53125 200.175781 37.527344 C 200.648438 38.933594 200.417969 43.925781 199.722656 47.261719 C 199.386719 48.882812 199.34375 49.542969 199.472656 51.855469 C 199.558594 53.34375 199.550781 56.4375 199.457031 58.730469 C 199.289062 62.90625 199.28125 62.921875 200.035156 64.433594 C 201.347656 67.074219 201.253906 66.976562 204.144531 67.449219 C 205.535156 67.679688 206.671875 67.886719 206.691406 67.902344 C 206.835938 68.042969 207.433594 67.226562 207.457031 66.855469 C 207.480469 66.527344 207.929688 66.101562 209.003906 65.386719 C 211.28125 63.875 211.449219 63.398438 211.878906 57.402344 C 212.214844 52.707031 212.214844 52.703125 211.722656 51.699219 C 211.371094 50.984375 211.273438 50.550781 211.394531 50.167969 C 211.496094 49.855469 211.464844 49.285156 211.300781 48.777344 C 211.089844 48.117188 211.070312 47.179688 211.238281 44.730469 C 211.445312 41.726562 211.503906 41.480469 212.050781 40.589844 C 212.625 39.660156 212.628906 39.570312 212.957031 34.699219 C 213.140625 31.984375 213.308594 28.070312 213.332031 26 C 213.359375 23.925781 213.4375 19.503906 213.503906 16.171875 C 213.667969 7.832031 213.242188 5.167969 211.285156 2.5 C 210.015625 0.765625 208.042969 -0.0390625 206.050781 0.0625 Z M 165.347656 12.65625 C 164.289062 12.625 163.222656 12.820312 162.519531 13.234375 C 160.152344 14.609375 159.355469 17.375 160.066406 21.78125 C 160.238281 22.859375 160.394531 24.789062 160.410156 26.0625 C 160.441406 28.652344 160.574219 29.621094 161.160156 31.71875 C 161.535156 33.0625 161.851562 33.890625 163.066406 36.71875 C 163.320312 37.308594 164.136719 39.722656 164.878906 42.078125 C 165.617188 44.429688 166.375 46.832031 166.566406 47.421875 C 166.753906 48.007812 167.191406 49.820312 167.550781 51.453125 C 168.265625 54.71875 170.183594 59.664062 171.644531 62.015625 C 172.753906 63.800781 172.855469 64.050781 173.644531 66.984375 C 175.238281 72.914062 175.558594 73.621094 177.238281 75.125 C 177.761719 75.589844 178.398438 75.996094 178.644531 76.015625 C 179.6875 76.089844 182.714844 71.859375 182.347656 70.84375 C 182.121094 70.222656 181.207031 66.59375 180.832031 64.828125 C 180.625 63.867188 180.628906 63.5 180.847656 63.09375 C 181.1875 62.457031 180.917969 60.6875 180.066406 57.9375 C 178.746094 53.683594 177.699219 48.878906 177.878906 47.921875 C 178.03125 47.097656 177.863281 45.160156 177.429688 42.746094 C 177.34375 42.277344 176.875 40.980469 176.398438 39.871094 C 175.523438 37.851562 175.539062 37.847656 175.867188 34.980469 C 176.386719 30.386719 175.542969 24.84375 173.523438 19.324219 C 172.761719 17.246094 170.8125 15.089844 168.148438 13.386719 C 167.441406 12.9375 166.40625 12.683594 165.351562 12.652344 Z M 244 18.265625 C 241.15625 18.367188 239.359375 19.640625 237.703125 22.578125 C 236.742188 24.289062 236.726562 24.28125 236.46875 27.71875 C 236.222656 31.027344 235.996094 32.1875 235.265625 33.71875 C 234.867188 34.554688 234.234375 37.90625 234.328125 38.703125 C 234.367188 39.007812 234.253906 39.929688 234.0625 40.765625 C 232.722656 46.710938 232.175781 50.0625 231.890625 54.203125 C 231.597656 58.480469 231.601562 58.488281 230 59.671875 C 228.121094 61.058594 226.691406 62.597656 226.15625 63.84375 C 225.949219 64.332031 225.664062 64.878906 225.5 65.046875 C 224.554688 66.027344 222.910156 70.949219 221.671875 76.515625 C 221.359375 77.929688 221.042969 79.1875 220.984375 79.3125 C 220.921875 79.449219 220.085938 79.539062 218.859375 79.515625 C 217.148438 79.480469 216.585938 79.542969 215.34375 80.015625 C 213.871094 80.574219 213.878906 80.59375 212.78125 79.8125 C 210.570312 78.234375 209.605469 77.929688 205.640625 77.625 C 201.273438 77.285156 200.335938 77.492188 198.21875 79.28125 C 196.011719 81.148438 195.3125 82.578125 195.078125 85.65625 C 194.976562 87.03125 194.765625 88.402344 194.609375 88.71875 C 194.457031 89.03125 194.332031 89.476562 194.3125 89.71875 C 194.269531 90.375 193.617188 90.894531 192.890625 90.84375 C 192.367188 90.804688 192.011719 90.492188 190.921875 89.203125 C 188.238281 86.019531 186.449219 85.886719 182.90625 88.625 C 181.777344 89.5 181.078125 89.878906 180.21875 90.0625 C 178.585938 90.414062 177.722656 90.761719 177.4375 91.21875 C 177.304688 91.433594 177.097656 91.617188 176.953125 91.609375 C 176.65625 91.585938 175.257812 93 174.546875 94.046875 C 173.992188 94.863281 173.980469 94.859375 173.109375 94.34375 C 171.988281 93.671875 169.128906 93.421875 167.53125 93.859375 C 165.1875 94.5 162.933594 96.25 161.734375 98.375 C 161.425781 98.929688 160.84375 99.839844 160.453125 100.390625 C 159.195312 102.160156 159.054688 102.703125 158.78125 106.5625 C 158.285156 113.582031 158.277344 115.875 158.796875 117.171875 C 159.234375 118.261719 160.5625 119.773438 161.125 119.8125 C 161.609375 119.84375 161.980469 120.648438 162.390625 122.609375 C 162.921875 125.125 163.84375 127.171875 164.796875 127.953125 C 165.03125 128.144531 165.421875 128.816406 165.65625 129.453125 C 165.894531 130.085938 166.464844 131.050781 166.9375 131.59375 C 167.585938 132.335938 167.785156 132.738281 167.75 133.21875 C 167.671875 134.40625 168.023438 136.105469 168.53125 136.984375 C 169.015625 137.8125 169.03125 137.988281 168.921875 140.765625 C 168.800781 143.964844 168.960938 144.65625 170.21875 146.90625 C 170.792969 147.929688 170.847656 148.238281 170.96875 151.0625 C 171.21875 156.851562 171.285156 157.671875 171.609375 158.84375 C 172.011719 160.289062 173.082031 162.007812 175.140625 164.484375 C 177.195312 166.949219 178.234375 167.5625 181.71875 168.25 C 183.109375 168.519531 184.523438 168.792969 184.859375 168.859375 C 189.089844 169.6875 191.773438 169.222656 195.28125 167.046875 C 197.148438 165.890625 198.234375 165.691406 202.96875 165.65625 C 204.507812 165.644531 206.890625 165.515625 208.265625 165.375 C 211.203125 165.070312 213.757812 164.828125 215.6875 164.671875 C 216.996094 164.566406 217.34375 164.488281 218.90625 163.9375 C 219.257812 163.8125 220.324219 163.578125 221.265625 163.40625 C 223.753906 162.945312 226.230469 162.023438 227.390625 161.125 C 227.949219 160.691406 228.917969 160.03125 229.546875 159.671875 C 230.175781 159.308594 230.925781 158.765625 231.1875 158.46875 C 231.792969 157.789062 232.4375 157.476562 233.140625 157.515625 C 233.917969 157.558594 237.300781 156.027344 238.34375 155.15625 C 238.828125 154.75 239.585938 154.28125 240.046875 154.125 C 240.511719 153.96875 241.109375 153.675781 241.359375 153.46875 C 241.613281 153.257812 242.273438 152.957031 242.84375 152.796875 C 243.414062 152.636719 244.246094 152.269531 244.671875 151.984375 C 245.101562 151.695312 245.578125 151.476562 245.734375 151.484375 C 245.894531 151.492188 246.222656 151.355469 246.453125 151.203125 C 246.6875 151.050781 246.984375 150.941406 247.125 150.953125 C 247.269531 150.960938 247.738281 150.757812 248.171875 150.5 C 248.84375 150.105469 249.664062 149.867188 252.265625 149.3125 C 252.785156 149.199219 254.964844 147.28125 255.78125 146.21875 C 256.507812 145.273438 258.730469 143.265625 261.34375 141.171875 C 262.878906 139.941406 264.359375 138.03125 264.75 136.765625 C 265.507812 134.3125 266.597656 133.148438 268.25 133.0625 C 270.375 132.949219 271.546875 132.285156 272.609375 130.59375 C 272.835938 130.234375 273.234375 129.96875 273.59375 129.90625 C 275.09375 129.644531 278.953125 127.269531 280.609375 125.59375 C 281.882812 124.304688 283.363281 122.238281 284.046875 120.84375 C 287.265625 114.273438 287.679688 112.804688 287 110.1875 C 285.871094 105.804688 281.878906 103.363281 277.28125 104.25 C 275.347656 104.621094 273.855469 105.523438 269.4375 109.03125 C 268.617188 109.683594 267.828125 110.28125 267.671875 110.359375 C 266.988281 110.6875 264.359375 113.742188 263.515625 115.1875 C 262.703125 116.582031 261.660156 117.628906 261.125 117.59375 C 260.890625 117.578125 258.535156 118.664062 257.5 119.265625 C 257.03125 119.535156 256.136719 119.816406 255.484375 119.90625 C 254.175781 120.085938 253.183594 120.445312 252.765625 120.890625 C 252.617188 121.050781 252.375 121.167969 252.21875 121.15625 C 252.066406 121.144531 251.816406 121.335938 251.65625 121.5625 C 251.5 121.785156 250.859375 122.148438 250.25 122.390625 C 249.644531 122.628906 249.101562 122.914062 249.03125 123.015625 C 248.960938 123.113281 248.429688 123.375 247.875 123.59375 C 247.320312 123.8125 246.605469 124.207031 246.28125 124.484375 C 245.023438 125.554688 244.640625 125.808594 243.71875 126.203125 C 243.195312 126.425781 242.652344 126.792969 242.484375 127 C 242.320312 127.207031 242.042969 127.367188 241.890625 127.359375 C 241.523438 127.332031 239.6875 125.863281 238.84375 124.9375 C 238.472656 124.527344 237.792969 123.976562 237.328125 123.703125 C 236.765625 123.363281 236.363281 122.910156 236.125 122.34375 C 235.929688 121.878906 235.320312 121.066406 234.765625 120.53125 C 234.210938 119.992188 233.027344 118.726562 232.125 117.703125 C 231.226562 116.679688 230.109375 115.515625 229.640625 115.125 C 228.640625 114.285156 228.554688 114.753906 230.46875 109.859375 C 231.9375 106.101562 232.746094 103.464844 233.140625 100.984375 C 233.324219 99.839844 233.554688 99.152344 234.046875 98.390625 C 234.859375 97.132812 235.316406 95.015625 235.25 92.75 C 235.203125 91.183594 235.449219 89.96875 236.0625 88.71875 C 237.257812 86.289062 237.644531 84.128906 237.203125 82.421875 C 236.851562 81.0625 236.851562 81.050781 238.15625 77.78125 C 239.054688 75.535156 239.664062 74.328125 240.09375 73.890625 C 240.867188 73.101562 241.0625 72.480469 241 71.171875 C 240.949219 70.097656 240.28125 68.246094 239.765625 67.75 C 239.421875 67.414062 239.457031 65.929688 239.828125 64.890625 C 239.957031 64.535156 240.574219 63.648438 241.203125 62.9375 C 241.832031 62.222656 242.339844 61.597656 242.34375 61.546875 C 242.347656 61.492188 242.667969 60.871094 243.046875 60.171875 C 243.429688 59.46875 244.003906 58.132812 244.3125 57.1875 C 244.621094 56.238281 245.316406 54.351562 245.859375 53 C 247.21875 49.625 248.921875 45.046875 249.78125 42.46875 C 250.175781 41.285156 251.019531 39.191406 251.65625 37.796875 C 252.953125 34.957031 253.402344 33.132812 253.625 29.890625 C 253.960938 24.980469 252.390625 21.4375 248.90625 19.28125 C 247.597656 18.46875 247.46875 18.449219 245.28125 18.296875 C 244.832031 18.265625 244.40625 18.25 244 18.265625 Z M 129.90625 65.359375 C 129.695312 65.347656 129.464844 65.472656 128.984375 65.8125 C 127.972656 66.523438 127.558594 67.609375 127.390625 70.0625 C 127.164062 73.394531 127.972656 74.621094 131.703125 76.703125 C 131.867188 76.792969 132.34375 77.535156 132.765625 78.359375 C 133.777344 80.332031 136.601562 83.71875 140.890625 88.0625 C 142.554688 89.746094 145.8125 94.484375 146.1875 95.765625 C 146.496094 96.816406 147.453125 97.957031 148.5 98.53125 C 149.378906 99.011719 151.558594 98.992188 152.765625 98.484375 C 155.078125 97.507812 156.796875 93.691406 156.828125 89.484375 C 156.859375 85.402344 154.992188 82.339844 150.65625 79.40625 C 149.570312 78.667969 148.492188 77.890625 148.28125 77.671875 C 147.546875 76.914062 144.929688 75.042969 143.515625 74.265625 C 142.734375 73.835938 141.8125 73.1875 141.453125 72.828125 C 141.09375 72.46875 140.449219 71.941406 140.015625 71.640625 C 139.582031 71.339844 139.042969 70.917969 138.828125 70.703125 C 138.617188 70.484375 137.730469 69.871094 136.859375 69.328125 C 134.589844 67.910156 134.230469 67.550781 134.046875 66.609375 C 133.839844 65.535156 133.8125 65.511719 132.171875 65.671875 C 131.082031 65.777344 130.679688 65.75 130.3125 65.515625 C 130.152344 65.414062 130.03125 65.363281 129.90625 65.359375 Z M 129.90625 65.359375 "/>
<path style=" stroke:none;fill-rule:nonzero;fill:rgb(50.196081%,80.000001%,6.666667%);fill-opacity:1;" d="M 132.523438 99.792969 C 128.40625 99.792969 125.148438 102.644531 124.472656 106.980469 C 124.171875 108.925781 124.523438 110.640625 126.332031 115.980469 C 126.671875 116.972656 126.972656 117.917969 126.988281 118.089844 C 127.070312 118.84375 129.039062 122.355469 130.113281 123.636719 C 131.152344 124.875 131.800781 126.207031 131.582031 126.699219 C 131.488281 126.914062 131.710938 129.476562 131.925781 130.652344 C 132.023438 131.183594 132 132.148438 131.863281 132.792969 C 131.59375 134.085938 131.589844 135.125 131.863281 135.667969 C 131.964844 135.863281 131.988281 136.136719 131.925781 136.277344 C 131.863281 136.417969 131.941406 136.726562 132.097656 136.949219 C 132.257812 137.175781 132.40625 137.890625 132.425781 138.542969 C 132.449219 139.195312 132.53125 139.800781 132.597656 139.902344 C 132.667969 140.003906 132.738281 140.585938 132.753906 141.183594 C 132.773438 141.78125 132.917969 142.582031 133.066406 142.980469 C 133.652344 144.527344 133.757812 144.980469 133.816406 145.980469 C 133.851562 146.550781 133.992188 147.191406 134.128906 147.417969 C 134.273438 147.644531 134.332031 147.949219 134.269531 148.089844 C 134.121094 148.425781 132.148438 149.65625 130.988281 150.136719 C 130.480469 150.347656 129.71875 150.808594 129.300781 151.152344 C 128.792969 151.570312 128.246094 151.777344 127.628906 151.808594 C 127.128906 151.835938 126.136719 152.140625 125.441406 152.480469 C 124.75 152.820312 123.148438 153.527344 121.878906 154.027344 C 120.613281 154.53125 119.160156 155.171875 118.628906 155.480469 C 117.503906 156.140625 117.921875 156.375 113.957031 152.917969 C 110.917969 150.265625 108.691406 148.644531 106.488281 147.433594 C 105.472656 146.875 104.917969 146.40625 104.363281 145.683594 C 103.457031 144.492188 101.617188 143.355469 99.457031 142.652344 C 97.96875 142.167969 96.914062 141.542969 95.941406 140.542969 C 94.058594 138.601562 92.152344 137.484375 90.394531 137.324219 C 89 137.195312 89.003906 137.191406 86.363281 134.855469 C 84.554688 133.253906 83.601562 132.285156 83.332031 131.730469 C 82.851562 130.734375 82.335938 130.332031 81.082031 129.949219 C 80.054688 129.636719 78.101562 129.632812 77.457031 129.949219 C 77.027344 130.160156 75.636719 129.636719 74.785156 128.933594 C 74.496094 128.695312 73.886719 127.828125 73.425781 126.996094 C 72.96875 126.164062 72.554688 125.457031 72.503906 125.433594 C 72.457031 125.414062 71.957031 124.902344 71.425781 124.308594 C 70.894531 123.714844 69.824219 122.746094 69.035156 122.136719 C 68.25 121.527344 66.722656 120.230469 65.628906 119.261719 C 62.914062 116.84375 59.175781 113.691406 57.035156 112.011719 C 56.058594 111.242188 54.351562 109.738281 53.253906 108.667969 C 51.019531 106.488281 49.46875 105.441406 46.488281 104.136719 C 41.980469 102.164062 38.132812 102.460938 34.925781 105.011719 C 33.722656 105.972656 33.652344 106.066406 32.769531 108.074219 C 31.3125 111.386719 31.703125 113.757812 34.222656 116.667969 C 35.511719 118.152344 35.511719 118.15625 38.660156 119.558594 C 41.691406 120.910156 42.703125 121.511719 43.894531 122.714844 C 44.550781 123.375 47.488281 125.085938 48.269531 125.261719 C 48.570312 125.332031 49.40625 125.773438 50.128906 126.230469 C 55.273438 129.5 58.25 131.144531 62.050781 132.808594 C 65.980469 134.53125 65.980469 134.527344 66.550781 136.433594 C 67.222656 138.671875 68.199219 140.527344 69.191406 141.449219 C 69.582031 141.8125 69.980469 142.273438 70.082031 142.480469 C 70.691406 143.703125 74.78125 146.921875 79.597656 149.964844 C 80.824219 150.738281 81.90625 151.445312 82.003906 151.542969 C 82.113281 151.648438 81.894531 152.476562 81.457031 153.621094 C 80.847656 155.222656 80.730469 155.761719 80.753906 157.089844 C 80.785156 158.667969 80.78125 158.664062 79.675781 159.433594 C 77.445312 160.984375 76.867188 161.789062 75.238281 165.417969 C 73.445312 169.417969 73.320312 170.371094 74.285156 172.964844 C 75.296875 175.675781 76.40625 176.816406 79.222656 178.074219 C 80.484375 178.636719 81.699219 179.292969 81.941406 179.542969 C 82.1875 179.792969 82.566406 180.085938 82.785156 180.183594 C 83.390625 180.449219 83.640625 181.21875 83.347656 181.886719 C 83.136719 182.367188 82.746094 182.59375 81.160156 183.183594 C 77.257812 184.636719 76.53125 186.285156 77.910156 190.542969 C 78.355469 191.902344 78.449219 192.675781 78.332031 193.542969 C 78.113281 195.199219 78.171875 196.125 78.503906 196.542969 C 78.664062 196.742188 78.75 197.023438 78.691406 197.152344 C 78.574219 197.425781 79.433594 199.195312 80.175781 200.214844 C 80.761719 201.015625 80.753906 201.039062 79.972656 201.683594 C 78.964844 202.515625 77.773438 205.125 77.644531 206.777344 C 77.457031 209.203125 78.347656 211.917969 79.941406 213.761719 C 80.359375 214.242188 81.011719 215.085938 81.394531 215.636719 C 82.636719 217.421875 83.089844 217.75 86.628906 219.308594 C 93.070312 222.148438 95.234375 222.910156 96.628906 222.855469 C 97.804688 222.8125 99.667969 222.078125 99.894531 221.558594 C 100.089844 221.117188 100.972656 221.035156 102.957031 221.308594 C 105.507812 221.660156 107.742188 221.492188 108.800781 220.855469 C 109.058594 220.703125 109.828125 220.566406 110.503906 220.558594 C 111.183594 220.550781 112.289062 220.335938 112.957031 220.074219 C 113.875 219.714844 114.332031 219.664062 114.769531 219.855469 C 115.863281 220.335938 117.554688 220.570312 118.550781 220.386719 C 119.496094 220.214844 119.695312 220.257812 122.269531 221.292969 C 125.242188 222.492188 125.949219 222.59375 128.492188 222.167969 C 129.648438 221.976562 129.949219 222.019531 132.648438 222.855469 C 138.179688 224.574219 138.980469 224.800781 140.195312 224.886719 C 141.691406 224.996094 143.683594 224.554688 146.710938 223.449219 C 149.722656 222.351562 150.621094 221.578125 152.445312 218.527344 C 153.167969 217.3125 153.910156 216.089844 154.085938 215.792969 C 156.292969 212.09375 156.757812 209.425781 155.898438 205.386719 C 155.4375 203.242188 155.613281 202.121094 157.179688 197.652344 C 157.683594 196.203125 158.378906 193.917969 158.710938 192.574219 C 159.414062 189.710938 160.046875 187.230469 160.554688 185.355469 C 160.894531 184.089844 160.933594 183.734375 160.945312 182.074219 C 160.945312 181.703125 161.085938 180.628906 161.242188 179.683594 C 161.648438 177.1875 161.617188 174.535156 161.164062 173.136719 C 160.945312 172.46875 160.648438 171.320312 160.523438 170.605469 C 160.394531 169.890625 160.132812 169.035156 159.945312 168.683594 C 159.511719 167.886719 159.449219 167.160156 159.726562 166.511719 C 160.027344 165.796875 159.710938 162.105469 159.242188 160.824219 C 159.023438 160.234375 158.855469 159.347656 158.867188 158.855469 C 158.875 158.367188 158.789062 157.726562 158.679688 157.417969 C 158.566406 157.109375 158.511719 156.355469 158.554688 155.761719 C 158.59375 155.171875 158.523438 154.292969 158.398438 153.792969 C 158.273438 153.292969 158.226562 152.753906 158.289062 152.605469 C 158.347656 152.457031 158.335938 152.125 158.273438 151.855469 C 158.207031 151.585938 158.199219 151.269531 158.257812 151.136719 C 158.3125 151.007812 158.289062 150.480469 158.195312 149.980469 C 158.046875 149.21875 158.105469 148.371094 158.460938 145.730469 C 158.53125 145.207031 157.449219 142.515625 156.726562 141.386719 C 156.078125 140.386719 154.941406 137.605469 153.851562 134.433594 C 153.210938 132.574219 151.910156 130.558594 150.851562 129.761719 C 148.796875 128.222656 148.09375 126.800781 148.570312 125.214844 C 149.179688 123.179688 148.941406 121.851562 147.710938 120.277344 C 147.445312 119.945312 147.300781 119.46875 147.367188 119.105469 C 147.625 117.609375 146.699219 113.183594 145.679688 111.058594 C 144.894531 109.425781 143.480469 107.316406 142.398438 106.199219 C 137.300781 100.953125 136.042969 100.070312 133.351562 99.824219 C 133.066406 99.800781 132.796875 99.792969 132.523438 99.792969 Z M 8.785156 134.324219 C 7.96875 134.363281 7.203125 134.511719 6.410156 134.746094 C 2.289062 135.96875 0.738281 141.058594 3.316406 144.917969 C 4.476562 146.652344 5.179688 147.15625 8.019531 148.261719 C 9.359375 148.78125 11.761719 149.722656 13.363281 150.355469 C 14.96875 150.988281 16.96875 151.640625 17.816406 151.824219 C 18.667969 152.007812 20.058594 152.472656 20.894531 152.839844 C 22.195312 153.40625 26.601562 154.476562 27.253906 154.386719 C 27.355469 154.375 28.996094 154.953125 30.910156 155.683594 C 33.855469 156.804688 34.59375 157.007812 35.644531 157.027344 C 37.125 157.058594 41.753906 158.964844 44.660156 160.746094 C 46.070312 161.609375 46.675781 161.867188 48.894531 162.527344 C 50.320312 162.949219 53.234375 164.007812 55.363281 164.871094 C 59.238281 166.441406 59.214844 166.429688 60.894531 166.230469 C 63.824219 165.886719 63.726562 165.964844 65.144531 163.402344 C 65.828125 162.171875 66.402344 161.148438 66.425781 161.136719 C 66.605469 161.046875 66.050781 160.222656 65.707031 160.074219 C 65.40625 159.941406 65.160156 159.390625 64.847656 158.136719 C 64.195312 155.480469 63.800781 155.144531 58.300781 152.714844 C 53.996094 150.8125 53.988281 150.824219 52.878906 150.949219 C 52.085938 151.039062 51.632812 150.972656 51.316406 150.730469 C 51.058594 150.53125 50.507812 150.375 49.972656 150.355469 C 49.28125 150.332031 48.394531 150.027344 46.144531 149.042969 C 43.382812 147.832031 43.171875 147.71875 42.519531 146.902344 C 41.839844 146.046875 41.761719 145.996094 37.285156 144.042969 C 34.792969 142.953125 31.164062 141.46875 29.222656 140.746094 C 27.285156 140.023438 23.152344 138.464844 20.035156 137.277344 C 14.191406 135.050781 11.238281 134.203125 8.785156 134.324219 Z M 9.503906 175.964844 C 7.292969 175.980469 4.601562 177.078125 2.097656 179.011719 C 0.777344 180.035156 -0.246094 182.671875 0.0507812 184.277344 C 0.550781 186.96875 2.902344 188.644531 7.285156 189.464844 C 8.359375 189.664062 10.210938 190.175781 11.410156 190.589844 C 13.859375 191.433594 14.832031 191.636719 17.003906 191.792969 C 18.402344 191.894531 19.261719 191.871094 22.332031 191.683594 C 22.980469 191.644531 25.523438 191.695312 27.988281 191.792969 C 30.457031 191.890625 32.980469 191.992188 33.597656 192.011719 C 34.21875 192.03125 36.082031 192.21875 37.738281 192.433594 C 41.054688 192.863281 46.363281 192.734375 49.066406 192.152344 C 51.125 191.710938 51.371094 191.699219 54.394531 191.949219 C 60.519531 192.449219 61.308594 192.398438 63.285156 191.324219 C 63.902344 190.988281 64.484375 190.519531 64.582031 190.292969 C 65.007812 189.335938 62.042969 185.054688 60.957031 185.058594 C 60.296875 185.0625 56.578125 184.691406 54.785156 184.449219 C 53.816406 184.316406 53.503906 184.199219 53.191406 183.855469 C 52.710938 183.320312 50.945312 182.964844 48.066406 182.839844 C 43.621094 182.644531 38.722656 182.015625 37.878906 181.527344 C 37.160156 181.105469 35.285156 180.605469 32.863281 180.199219 C 32.398438 180.121094 31.023438 180.121094 29.816406 180.199219 C 27.621094 180.339844 27.625 180.332031 25.035156 179.058594 C 20.890625 177.015625 15.386719 175.925781 9.503906 175.964844 Z M 66.378906 214.683594 C 63.8125 214.652344 61.238281 215.652344 58.332031 217.777344 C 57.273438 218.550781 56.171875 219.308594 55.894531 219.433594 C 54.9375 219.867188 52.308594 221.695312 51.097656 222.761719 C 50.429688 223.351562 49.511719 223.996094 49.050781 224.214844 C 48.59375 224.433594 47.871094 224.859375 47.441406 225.167969 C 47.011719 225.476562 46.421875 225.835938 46.144531 225.964844 C 45.871094 226.09375 44.980469 226.71875 44.175781 227.355469 C 42.078125 229.015625 41.628906 229.234375 40.675781 229.089844 C 39.597656 228.921875 39.582031 228.945312 39.175781 230.542969 C 38.90625 231.605469 38.742188 231.976562 38.394531 232.246094 C 38 232.554688 37.976562 232.6875 38.222656 233.589844 C 38.554688 234.785156 39.425781 235.527344 41.675781 236.511719 C 44.738281 237.851562 46.175781 237.523438 49.394531 234.714844 C 49.535156 234.589844 50.398438 234.394531 51.316406 234.277344 C 53.519531 233.992188 57.65625 232.457031 63.191406 229.886719 C 65.34375 228.886719 70.894531 227.433594 72.222656 227.511719 C 73.320312 227.574219 74.71875 227.066406 75.613281 226.277344 C 76.367188 225.613281 77.074219 223.539062 77.003906 222.230469 C 76.867188 219.726562 73.863281 216.820312 69.910156 215.371094 C 68.714844 214.929688 67.546875 214.699219 66.378906 214.683594 Z M 66.378906 214.683594 "/>
<path style=" stroke:none;fill-rule:nonzero;fill:rgb(100%,60.000002%,0%);fill-opacity:1;" d="M 309.007812 100.203125 C 308.296875 100.207031 307.417969 100.382812 306.242188 100.734375 C 303.039062 101.695312 302.167969 102.867188 301.539062 107.09375 C 301.511719 107.277344 300.988281 108.003906 300.367188 108.6875 C 298.875 110.328125 296.699219 114.160156 294.148438 119.703125 C 293.15625 121.855469 289.867188 126.574219 288.804688 127.375 C 287.925781 128.035156 287.191406 129.335938 287.023438 130.515625 C 286.878906 131.507812 287.679688 133.53125 288.585938 134.484375 C 290.308594 136.304688 294.476562 136.578125 298.429688 135.125 C 302.257812 133.714844 304.476562 130.886719 305.695312 125.796875 C 306 124.519531 306.359375 123.230469 306.492188 122.953125 C 306.9375 122 307.761719 118.910156 307.992188 117.3125 C 308.117188 116.429688 308.390625 115.324219 308.601562 114.859375 C 308.808594 114.394531 309.082031 113.605469 309.210938 113.09375 C 309.335938 112.582031 309.550781 111.933594 309.679688 111.65625 C 309.804688 111.382812 310.070312 110.351562 310.273438 109.34375 C 310.796875 106.71875 311 106.238281 311.820312 105.734375 C 312.75 105.160156 312.75 105.152344 312.023438 103.671875 C 311.539062 102.691406 311.433594 102.285156 311.523438 101.859375 C 311.625 101.371094 311.546875 101.246094 310.773438 100.71875 C 310.257812 100.371094 309.714844 100.203125 309.007812 100.203125 Z M 368.550781 112.417969 C 366.960938 112.414062 365.105469 113.046875 362.925781 114.292969 C 361.976562 114.835938 360.234375 115.660156 359.050781 116.121094 C 356.636719 117.0625 355.761719 117.519531 354.003906 118.808594 C 352.875 119.636719 352.238281 120.207031 350.019531 122.339844 C 349.554688 122.789062 347.574219 124.410156 345.628906 125.933594 C 343.6875 127.457031 341.707031 129.015625 341.222656 129.402344 C 340.738281 129.789062 339.203125 130.851562 337.800781 131.761719 C 334.996094 133.582031 331.050781 137.113281 329.363281 139.308594 C 328.082031 140.976562 327.890625 141.148438 325.425781 142.917969 C 320.4375 146.5 319.863281 147.050781 319.050781 149.152344 C 318.796875 149.808594 318.652344 150.542969 318.722656 150.777344 C 319.019531 151.78125 324.058594 153.125 324.878906 152.417969 C 325.382812 151.988281 328.449219 149.878906 329.972656 148.902344 C 330.796875 148.375 331.125 148.234375 331.582031 148.292969 C 332.296875 148.386719 333.871094 147.515625 336.144531 145.746094 C 339.660156 143.015625 343.796875 140.339844 344.753906 140.167969 C 345.578125 140.019531 347.320312 139.175781 349.425781 137.917969 C 349.832031 137.675781 350.886719 136.789062 351.753906 135.949219 C 353.335938 134.421875 353.328125 134.421875 356.128906 133.714844 C 360.609375 132.585938 365.535156 129.851562 369.988281 126.011719 C 371.664062 124.566406 372.976562 121.996094 373.628906 118.902344 C 373.976562 117.265625 373.066406 114.605469 371.800781 113.574219 C 370.871094 112.820312 369.789062 112.421875 368.550781 112.417969 Z M 287.160156 142.011719 C 286.253906 142.058594 285.171875 142.347656 283.144531 142.949219 C 276.402344 144.957031 274.238281 145.789062 273.207031 146.730469 C 272.34375 147.523438 271.40625 149.28125 271.566406 149.824219 C 271.707031 150.289062 271.085938 150.917969 269.394531 151.996094 C 267.226562 153.378906 265.652344 154.96875 265.253906 156.136719 C 265.160156 156.421875 264.65625 157.003906 264.144531 157.449219 C 263.636719 157.894531 262.925781 158.800781 262.582031 159.433594 C 262.117188 160.300781 261.824219 160.625 261.363281 160.761719 C 260.222656 161.105469 258.757812 162.019531 258.113281 162.808594 C 257.507812 163.554688 257.34375 163.632812 254.707031 164.511719 C 251.671875 165.523438 251.054688 165.917969 249.394531 167.886719 C 248.640625 168.785156 248.386719 168.933594 245.785156 170.042969 C 240.457031 172.316406 239.703125 172.683594 238.722656 173.402344 C 237.511719 174.289062 236.285156 175.898438 234.691406 178.699219 C 233.105469 181.488281 232.917969 182.664062 233.503906 186.167969 C 233.738281 187.5625 233.980469 188.988281 234.035156 189.324219 C 234.75 193.574219 236.121094 195.917969 239.394531 198.433594 C 241.132812 199.773438 241.707031 200.71875 243.410156 205.136719 C 243.964844 206.570312 244.933594 208.761719 245.550781 209.996094 C 246.871094 212.636719 247.988281 214.960938 248.816406 216.714844 C 249.378906 217.902344 249.5625 218.195312 250.628906 219.464844 C 250.867188 219.75 251.480469 220.644531 251.972656 221.464844 C 253.28125 223.632812 255.019531 225.632812 256.269531 226.402344 C 256.871094 226.773438 257.820312 227.457031 258.378906 227.917969 C 258.941406 228.378906 259.695312 228.871094 260.066406 229.011719 C 260.914062 229.339844 261.449219 229.839844 261.660156 230.511719 C 261.894531 231.253906 264.523438 233.875 265.707031 234.542969 C 266.257812 234.851562 266.945312 235.414062 267.253906 235.792969 C 267.566406 236.171875 268.050781 236.617188 268.332031 236.777344 C 268.617188 236.941406 269.15625 237.457031 269.503906 237.933594 C 269.855469 238.414062 270.492188 239.054688 270.910156 239.355469 C 271.332031 239.65625 271.707031 240.03125 271.753906 240.183594 C 271.804688 240.335938 272.03125 240.585938 272.253906 240.746094 C 272.480469 240.910156 272.699219 241.15625 272.738281 241.292969 C 272.78125 241.429688 273.125 241.804688 273.519531 242.121094 C 274.125 242.609375 274.644531 243.289062 276.082031 245.527344 C 276.371094 245.976562 278.941406 247.34375 280.222656 247.730469 C 281.363281 248.078125 284.027344 249.445312 286.910156 251.152344 C 288.601562 252.15625 290.898438 252.84375 292.222656 252.761719 C 294.785156 252.605469 296.246094 253.230469 296.910156 254.746094 C 297.765625 256.695312 298.796875 257.566406 300.753906 257.964844 C 301.171875 258.050781 301.570312 258.320312 301.753906 258.636719 C 302.527344 259.945312 306.117188 262.726562 308.269531 263.683594 C 309.925781 264.421875 312.378906 265.097656 313.925781 265.246094 C 321.207031 265.945312 322.730469 265.785156 324.941406 264.230469 C 328.644531 261.628906 329.515625 257.046875 327.066406 253.058594 C 326.035156 251.378906 324.65625 250.300781 319.816406 247.402344 C 318.917969 246.863281 318.085938 246.320312 317.957031 246.199219 C 317.40625 245.675781 313.640625 244.308594 311.988281 244.027344 C 310.394531 243.757812 309.035156 243.152344 308.878906 242.636719 C 308.8125 242.414062 306.976562 240.582031 306.050781 239.824219 C 305.632812 239.484375 305.039062 238.730469 304.722656 238.152344 C 304.09375 236.992188 303.410156 236.199219 302.847656 235.964844 C 302.644531 235.882812 302.441406 235.691406 302.394531 235.542969 C 302.351562 235.394531 302.113281 235.222656 301.847656 235.152344 C 301.582031 235.085938 300.992188 234.621094 300.550781 234.136719 C 300.113281 233.65625 299.671875 233.230469 299.550781 233.199219 C 299.433594 233.167969 299 232.796875 298.597656 232.355469 C 298.199219 231.914062 297.566406 231.390625 297.191406 231.183594 C 295.746094 230.382812 295.386719 230.113281 294.691406 229.386719 C 294.296875 228.976562 293.773438 228.5625 293.519531 228.480469 C 293.269531 228.398438 293.015625 228.222656 292.972656 228.074219 C 292.867188 227.722656 293.574219 225.488281 294.144531 224.371094 C 294.398438 223.882812 294.691406 223.042969 294.785156 222.511719 C 294.902344 221.863281 295.183594 221.34375 295.628906 220.917969 C 295.996094 220.574219 296.542969 219.703125 296.847656 218.996094 C 297.15625 218.289062 297.925781 216.730469 298.566406 215.527344 C 299.207031 214.324219 299.894531 212.871094 300.097656 212.292969 C 300.53125 211.0625 300.058594 211.148438 305.316406 211.214844 C 309.351562 211.265625 312.105469 211.097656 314.566406 210.589844 C 315.703125 210.359375 316.429688 210.335938 317.316406 210.527344 C 318.78125 210.847656 320.90625 210.53125 323.003906 209.667969 C 324.453125 209.074219 325.679688 208.863281 327.066406 208.996094 C 329.757812 209.257812 331.9375 208.871094 333.378906 207.855469 C 334.527344 207.050781 334.515625 207.035156 338.035156 207.105469 C 340.453125 207.15625 341.832031 207.296875 342.394531 207.542969 C 343.40625 207.992188 344.035156 207.972656 345.238281 207.449219 C 346.226562 207.023438 347.71875 205.75 348.003906 205.089844 C 348.195312 204.648438 349.605469 204.140625 350.707031 204.121094 C 351.082031 204.117188 352.117188 204.394531 353.003906 204.730469 C 353.894531 205.070312 354.671875 205.324219 354.722656 205.308594 C 354.773438 205.292969 355.464844 205.375 356.253906 205.480469 C 357.042969 205.589844 358.496094 205.636719 359.488281 205.589844 C 360.484375 205.546875 362.484375 205.542969 363.941406 205.574219 C 367.578125 205.65625 372.476562 205.648438 375.191406 205.542969 C 376.4375 205.496094 378.710938 205.535156 380.238281 205.636719 C 383.355469 205.851562 385.203125 205.636719 388.316406 204.699219 C 393.03125 203.285156 395.792969 200.5625 396.582031 196.542969 C 396.878906 195.03125 396.867188 194.910156 396.238281 192.808594 C 395.203125 189.34375 393.359375 187.816406 389.550781 187.230469 C 387.609375 186.933594 387.609375 186.917969 384.300781 187.886719 C 381.117188 188.824219 379.972656 189.015625 378.285156 188.871094 C 377.359375 188.792969 373.980469 189.394531 373.269531 189.761719 C 372.996094 189.90625 372.085938 190.113281 371.238281 190.230469 C 365.203125 191.074219 361.871094 191.742188 357.894531 192.933594 C 353.789062 194.167969 353.800781 194.171875 352.128906 193.089844 C 350.167969 191.820312 348.199219 191.042969 346.847656 190.980469 C 346.316406 190.957031 345.71875 190.855469 345.503906 190.761719 C 344.25 190.222656 339.070312 190.429688 333.425781 191.230469 C 331.992188 191.4375 330.707031 191.601562 330.566406 191.589844 C 330.417969 191.582031 330.039062 190.808594 329.628906 189.652344 C 329.058594 188.039062 328.789062 187.554688 327.910156 186.558594 C 326.867188 185.378906 326.863281 185.378906 327.207031 184.074219 C 327.902344 181.449219 327.835938 180.441406 326.722656 176.621094 C 325.5 172.414062 324.96875 171.628906 322.550781 170.277344 C 320.027344 168.867188 318.464844 168.695312 315.503906 169.558594 C 314.179688 169.945312 312.804688 170.25 312.457031 170.214844 C 312.109375 170.183594 311.644531 170.210938 311.410156 170.277344 C 310.777344 170.46875 310.089844 170.054688 309.878906 169.355469 C 309.730469 168.851562 309.882812 168.394531 310.707031 166.917969 C 312.742188 163.285156 312.238281 161.566406 308.425781 159.214844 C 307.210938 158.464844 306.621094 157.953125 306.144531 157.214844 C 305.242188 155.8125 304.59375 155.132812 304.066406 155.027344 C 303.816406 154.980469 303.59375 154.835938 303.550781 154.699219 C 303.464844 154.414062 301.640625 153.605469 300.410156 153.308594 C 299.449219 153.078125 299.453125 153.074219 299.628906 152.074219 C 299.859375 150.789062 299.070312 148.011719 298.097656 146.667969 C 296.671875 144.699219 294.242188 143.210938 291.832031 142.839844 C 291.203125 142.746094 290.15625 142.53125 289.503906 142.355469 C 288.71875 142.148438 288.152344 142.027344 287.550781 142.011719 C 287.425781 142.011719 287.292969 142.007812 287.160156 142.011719 Z M 392.488281 145.308594 C 391.605469 145.347656 390.640625 145.621094 389.066406 146.167969 C 387.707031 146.636719 385.257812 147.46875 383.628906 148.027344 C 381.996094 148.582031 380.035156 149.378906 379.269531 149.792969 C 378.5 150.203125 377.160156 150.761719 376.285156 151.027344 C 374.929688 151.4375 370.878906 153.457031 370.4375 153.949219 C 370.371094 154.023438 368.730469 154.652344 366.796875 155.339844 C 363.828125 156.390625 363.144531 156.703125 362.328125 157.371094 C 361.183594 158.304688 356.414062 159.84375 353.050781 160.371094 C 351.414062 160.625 350.792969 160.824219 348.675781 161.761719 C 347.3125 162.363281 344.417969 163.445312 342.238281 164.167969 C 338.269531 165.476562 338.261719 165.488281 337.113281 166.730469 C 335.105469 168.886719 335.144531 168.746094 335.722656 171.621094 C 335.996094 173 336.214844 174.15625 336.207031 174.183594 C 336.128906 174.367188 337.097656 174.632812 337.457031 174.527344 C 337.773438 174.429688 338.316406 174.695312 339.363281 175.449219 C 341.582031 177.046875 342.101562 177.035156 347.863281 175.324219 C 352.375 173.984375 352.363281 173.996094 353.128906 173.183594 C 353.675781 172.601562 354.054688 172.34375 354.453125 172.324219 C 354.78125 172.308594 355.304688 172.074219 355.71875 171.746094 C 356.265625 171.316406 357.136719 170.980469 359.484375 170.277344 C 362.375 169.410156 362.617188 169.34375 363.640625 169.542969 C 364.714844 169.75 364.796875 169.746094 369.46875 168.339844 C 372.078125 167.554688 375.820312 166.324219 377.765625 165.621094 C 379.714844 164.914062 383.875 163.4375 387.015625 162.324219 C 394.878906 159.539062 397.226562 158.1875 399.03125 155.417969 C 401.378906 151.816406 399.246094 146.933594 394.78125 145.667969 C 394.03125 145.453125 393.457031 145.324219 392.859375 145.308594 C 392.738281 145.304688 392.613281 145.300781 392.484375 145.308594 Z M 392.488281 145.308594 "/>
<path style=" stroke:none;fill-rule:nonzero;fill:rgb(0%,60.000002%,86.666667%);fill-opacity:1;" d="M 123.222656 225.46875 C 122.144531 225.460938 120.28125 225.660156 119.316406 225.9375 C 118.167969 226.261719 115.195312 226.5625 111.847656 226.6875 C 109.882812 226.757812 107.558594 227.402344 106.488281 228.1875 C 104.417969 229.703125 102.847656 229.992188 101.472656 229.078125 C 99.699219 227.902344 98.347656 227.730469 96.488281 228.453125 C 96.089844 228.605469 95.613281 228.601562 95.285156 228.4375 C 93.925781 227.753906 89.425781 227.359375 87.097656 227.71875 C 85.308594 227.992188 82.882812 228.738281 81.503906 229.453125 C 75.003906 232.804688 73.785156 233.761719 72.769531 236.265625 C 71.0625 240.457031 72.816406 244.78125 77.035156 246.8125 C 78.808594 247.667969 80.539062 247.835938 86.175781 247.65625 C 87.222656 247.621094 88.222656 247.621094 88.394531 247.65625 C 89.136719 247.796875 93.074219 246.90625 94.613281 246.25 C 96.097656 245.613281 97.5625 245.382812 97.972656 245.734375 C 98.148438 245.886719 100.65625 246.425781 101.847656 246.5625 C 102.382812 246.625 103.300781 246.949219 103.878906 247.265625 C 105.035156 247.902344 106.027344 248.183594 106.628906 248.078125 C 106.84375 248.039062 107.117188 248.085938 107.238281 248.1875 C 107.355469 248.289062 107.679688 248.304688 107.941406 248.21875 C 108.199219 248.132812 108.917969 248.207031 109.550781 248.375 C 110.179688 248.542969 110.792969 248.664062 110.910156 248.625 C 111.023438 248.585938 111.597656 248.671875 112.175781 248.828125 C 112.75 248.984375 113.5625 249.089844 113.988281 249.0625 C 115.636719 248.953125 116.089844 248.96875 117.066406 249.203125 C 117.621094 249.335938 118.277344 249.394531 118.535156 249.328125 C 118.789062 249.261719 119.105469 249.289062 119.222656 249.390625 C 119.5 249.628906 120.097656 251.875 120.222656 253.125 C 120.273438 253.671875 120.484375 254.546875 120.691406 255.046875 C 120.941406 255.65625 121.007812 256.230469 120.863281 256.828125 C 120.742188 257.316406 120.738281 258.347656 120.863281 259.109375 C 120.988281 259.871094 121.1875 261.59375 121.300781 262.953125 C 121.410156 264.308594 121.609375 265.90625 121.753906 266.5 C 122.054688 267.769531 122.398438 267.429688 117.941406 270.21875 C 114.519531 272.359375 112.316406 274.023438 110.519531 275.78125 C 109.6875 276.589844 109.089844 276.992188 108.238281 277.3125 C 106.832031 277.835938 105.222656 279.265625 103.925781 281.125 C 103.027344 282.410156 102.101562 283.222656 100.863281 283.859375 C 98.457031 285.097656 96.839844 286.613281 96.175781 288.25 C 95.644531 289.546875 95.65625 289.542969 92.660156 291.390625 C 90.597656 292.660156 89.375 293.277344 88.769531 293.375 C 87.675781 293.546875 87.140625 293.910156 86.410156 295 C 85.808594 295.890625 85.246094 297.777344 85.363281 298.484375 C 85.441406 298.957031 84.53125 300.136719 83.613281 300.75 C 83.300781 300.957031 82.289062 301.285156 81.363281 301.484375 C 80.433594 301.679688 79.628906 301.882812 79.597656 301.921875 C 79.5625 301.960938 78.945312 302.273438 78.222656 302.609375 C 77.496094 302.945312 76.234375 303.6875 75.425781 304.265625 C 74.613281 304.839844 72.933594 305.925781 71.691406 306.6875 C 68.589844 308.585938 64.496094 311.253906 62.269531 312.8125 C 61.246094 313.527344 59.3125 314.714844 57.96875 315.453125 C 55.234375 316.957031 53.785156 318.152344 51.671875 320.625 C 48.476562 324.367188 47.617188 328.128906 49.125 331.9375 C 49.695312 333.371094 49.773438 333.476562 51.4375 334.90625 C 54.183594 337.261719 56.578125 337.566406 60.09375 336 C 61.890625 335.199219 61.886719 335.183594 64.140625 332.578125 C 66.316406 330.070312 67.191406 329.289062 68.6875 328.5 C 69.511719 328.066406 72.011719 325.742188 72.40625 325.046875 C 72.5625 324.777344 73.226562 324.105469 73.875 323.546875 C 78.5 319.574219 80.914062 317.199219 83.609375 314.046875 C 86.398438 310.789062 86.402344 310.789062 88.390625 310.796875 C 90.730469 310.804688 92.800781 310.414062 93.96875 309.734375 C 94.429688 309.464844 94.992188 309.210938 95.21875 309.171875 C 96.566406 308.945312 100.816406 305.976562 105.125 302.25 C 106.222656 301.300781 107.207031 300.472656 107.328125 300.40625 C 107.460938 300.332031 108.1875 300.765625 109.15625 301.515625 C 110.511719 302.5625 111.019531 302.824219 112.296875 303.1875 C 113.816406 303.617188 113.804688 303.625 114.21875 304.90625 C 115.054688 307.488281 115.65625 308.3125 118.65625 310.921875 C 121.964844 313.796875 122.847656 314.171875 125.609375 314 C 128.5 313.820312 129.886719 313.109375 131.90625 310.78125 C 132.8125 309.738281 133.816406 308.753906 134.125 308.59375 C 134.4375 308.433594 134.8125 308.152344 134.96875 307.96875 C 135.398438 307.464844 136.214844 307.429688 136.765625 307.90625 C 137.167969 308.25 137.273438 308.703125 137.375 310.390625 C 137.632812 314.546875 138.996094 315.738281 143.46875 315.65625 C 144.898438 315.628906 145.671875 315.746094 146.46875 316.109375 C 147.992188 316.800781 148.894531 317.007812 149.390625 316.8125 C 149.628906 316.71875 149.910156 316.71875 150.015625 316.8125 C 150.242188 317.007812 152.199219 316.710938 153.390625 316.296875 C 154.328125 315.96875 154.347656 315.972656 154.734375 316.90625 C 155.238281 318.113281 157.394531 320.007812 158.9375 320.609375 C 161.203125 321.492188 164.054688 321.429688 166.28125 320.4375 C 166.863281 320.179688 167.859375 319.800781 168.5 319.59375 C 170.570312 318.925781 171.011719 318.589844 173.53125 315.65625 C 178.117188 310.316406 179.488281 308.457031 179.84375 307.109375 C 180.144531 305.972656 179.976562 303.992188 179.546875 303.625 C 179.179688 303.308594 179.351562 302.429688 180.1875 300.609375 C 181.265625 298.269531 181.753906 296.085938 181.453125 294.890625 C 181.382812 294.597656 181.484375 293.820312 181.671875 293.171875 C 181.863281 292.519531 181.964844 291.402344 181.90625 290.6875 C 181.832031 289.703125 181.90625 289.253906 182.21875 288.890625 C 182.996094 287.984375 183.730469 286.429688 183.84375 285.421875 C 183.953125 284.464844 184.042969 284.289062 185.78125 282.125 C 187.789062 279.628906 188.09375 278.992188 188.421875 276.4375 C 188.574219 275.273438 188.695312 274.992188 190.28125 272.65625 C 193.535156 267.859375 193.988281 267.148438 194.421875 266.015625 C 194.960938 264.613281 195.117188 262.589844 194.9375 259.375 C 194.761719 256.171875 194.28125 255.082031 191.890625 252.453125 C 190.941406 251.40625 189.980469 250.332031 189.75 250.078125 C 186.851562 246.886719 184.429688 245.675781 180.3125 245.328125 C 178.128906 245.144531 177.136719 244.636719 173.3125 241.84375 C 172.074219 240.9375 170.066406 239.625 168.875 238.921875 C 166.339844 237.414062 164.144531 236.074219 162.5 235.046875 C 161.390625 234.351562 161.070312 234.210938 159.484375 233.71875 C 159.132812 233.609375 158.125 233.171875 157.265625 232.75 C 154.996094 231.632812 152.453125 230.890625 150.984375 230.921875 C 150.28125 230.933594 149.113281 230.878906 148.390625 230.796875 C 147.671875 230.710938 146.765625 230.699219 146.375 230.78125 C 145.488281 230.964844 144.777344 230.839844 144.234375 230.390625 C 143.640625 229.894531 140.003906 229.109375 138.640625 229.1875 C 138.015625 229.222656 137.125 229.136719 136.65625 228.984375 C 136.191406 228.832031 135.546875 228.714844 135.21875 228.734375 C 134.894531 228.75 134.164062 228.585938 133.609375 228.375 C 133.058594 228.164062 132.1875 227.976562 131.671875 227.953125 C 131.160156 227.925781 130.640625 227.820312 130.515625 227.71875 C 130.394531 227.617188 130.058594 227.53125 129.78125 227.515625 C 129.507812 227.5 129.203125 227.40625 129.09375 227.3125 C 128.988281 227.21875 128.472656 227.101562 127.96875 227.046875 C 127.199219 226.964844 126.394531 226.667969 123.96875 225.5625 C 123.847656 225.507812 123.578125 225.46875 123.21875 225.46875 Z M 111.847656 318.027344 C 111.550781 318.042969 110.964844 318.269531 110.785156 318.480469 C 110.566406 318.734375 109.964844 318.800781 108.675781 318.730469 C 105.945312 318.585938 105.5 318.878906 101.582031 323.433594 C 98.511719 327.003906 98.519531 326.992188 98.316406 328.089844 C 98.167969 328.875 97.984375 329.296875 97.660156 329.527344 C 97.390625 329.71875 97.082031 330.195312 96.910156 330.699219 C 96.683594 331.355469 96.128906 332.128906 94.535156 333.996094 C 92.574219 336.289062 92.410156 336.4375 91.441406 336.824219 C 90.425781 337.230469 90.34375 337.300781 87.175781 341.011719 C 85.40625 343.082031 82.929688 346.117188 81.675781 347.761719 C 80.417969 349.410156 77.730469 352.90625 75.691406 355.542969 C 70.582031 362.140625 69.335938 364.546875 69.316406 367.855469 C 69.289062 372.15625 73.71875 375.109375 78.160156 373.761719 C 80.15625 373.15625 80.839844 372.628906 82.722656 370.230469 C 83.609375 369.101562 85.195312 367.082031 86.269531 365.730469 C 87.339844 364.378906 88.582031 362.664062 89.003906 361.902344 C 89.425781 361.140625 90.238281 359.925781 90.832031 359.230469 C 91.746094 358.152344 94.054688 354.273438 94.160156 353.621094 C 94.175781 353.523438 95.21875 352.117188 96.472656 350.496094 C 98.398438 348.003906 98.800781 347.371094 99.128906 346.371094 C 99.585938 344.964844 102.769531 341.074219 105.316406 338.808594 C 106.550781 337.710938 106.960938 337.210938 108.238281 335.277344 C 109.054688 334.035156 110.917969 331.550781 112.363281 329.761719 C 114.988281 326.511719 114.96875 326.519531 115.269531 324.855469 C 115.789062 321.953125 115.839844 322.085938 113.800781 319.980469 C 112.820312 318.96875 112.023438 318.132812 112.019531 318.105469 C 112.007812 318.054688 111.945312 318.023438 111.847656 318.027344 Z M 172.566406 325.605469 C 170.199219 325.640625 167.128906 327.570312 164.910156 330.511719 C 162.453125 333.769531 162.121094 337.335938 163.847656 342.277344 C 164.28125 343.515625 164.683594 344.789062 164.722656 345.089844 C 164.859375 346.132812 165.847656 349.183594 166.519531 350.652344 C 166.890625 351.464844 167.257812 352.539062 167.332031 353.042969 C 167.40625 353.546875 167.601562 354.371094 167.769531 354.871094 C 167.9375 355.371094 168.101562 356.007812 168.144531 356.308594 C 168.1875 356.609375 168.535156 357.652344 168.910156 358.605469 C 169.890625 361.097656 169.96875 361.582031 169.550781 362.449219 C 169.078125 363.433594 169.09375 363.472656 170.503906 364.324219 C 171.441406 364.890625 171.753906 365.167969 171.910156 365.574219 C 172.089844 366.042969 172.222656 366.082031 173.160156 366.105469 C 174.398438 366.136719 175.363281 365.519531 176.957031 363.652344 C 179.128906 361.113281 179.210938 359.640625 177.457031 355.746094 C 177.378906 355.578125 177.445312 354.691406 177.597656 353.777344 C 177.964844 351.589844 177.699219 347.214844 176.847656 341.167969 C 176.515625 338.820312 176.730469 333.058594 177.191406 331.808594 C 177.570312 330.777344 177.484375 329.300781 176.988281 328.214844 C 176.570312 327.304688 174.808594 326.027344 173.535156 325.714844 C 173.230469 325.640625 172.90625 325.601562 172.566406 325.605469 Z M 138.550781 328.152344 C 136.886719 328.207031 133.554688 329.417969 133.300781 330.261719 C 133.113281 330.894531 131.695312 334.351562 130.941406 335.996094 C 130.535156 336.886719 130.3125 337.171875 129.894531 337.371094 C 129.242188 337.675781 128.398438 339.246094 127.441406 341.964844 C 125.964844 346.160156 123.9375 350.660156 123.222656 351.324219 C 122.613281 351.890625 121.597656 353.546875 120.503906 355.746094 C 120.292969 356.167969 119.890625 357.472656 119.613281 358.652344 C 119.109375 360.792969 119.101562 360.792969 117.128906 362.902344 C 113.972656 366.277344 111.332031 371.230469 109.660156 376.871094 C 109.03125 378.992188 109.320312 381.882812 110.441406 384.839844 C 111.035156 386.402344 113.242188 388.140625 114.863281 388.324219 C 117.582031 388.628906 119.882812 386.875 121.941406 382.917969 C 122.445312 381.949219 123.460938 380.320312 124.207031 379.292969 C 125.726562 377.195312 126.207031 376.328125 126.988281 374.292969 C 127.488281 372.988281 127.714844 372.144531 128.425781 369.152344 C 128.574219 368.523438 129.367188 366.109375 130.175781 363.777344 C 130.988281 361.445312 131.820312 359.050781 132.019531 358.464844 C 132.21875 357.878906 132.925781 356.160156 133.613281 354.636719 C 134.988281 351.589844 136.414062 346.472656 136.644531 343.714844 C 136.820312 341.617188 136.871094 341.382812 137.988281 338.558594 C 140.246094 332.847656 140.425781 332.078125 139.972656 329.871094 C 139.832031 329.183594 139.566406 328.484375 139.378906 328.324219 C 139.230469 328.195312 138.933594 328.140625 138.550781 328.152344 Z M 138.550781 328.152344 "/>
<path style=" stroke:none;fill-rule:nonzero;fill:rgb(73.333335%,20%,66.666669%);fill-opacity:1;" d="M 239.097656 229.542969 C 237.703125 229.5625 236.503906 229.984375 234.519531 230.980469 C 233.253906 231.613281 231.964844 232.28125 231.660156 232.433594 C 227.804688 234.367188 225.976562 236.363281 224.535156 240.230469 C 223.765625 242.285156 223.003906 243.113281 219.285156 246.042969 C 218.078125 246.992188 216.285156 248.558594 215.285156 249.511719 C 213.148438 251.546875 211.261719 253.28125 209.832031 254.589844 C 208.863281 255.472656 208.636719 255.773438 207.738281 257.167969 C 207.535156 257.480469 206.859375 258.296875 206.222656 259.011719 C 204.535156 260.898438 203.136719 263.167969 202.769531 264.589844 C 202.59375 265.273438 202.214844 266.371094 201.941406 267.042969 C 201.664062 267.714844 201.421875 268.582031 201.394531 268.980469 C 201.332031 269.886719 201.003906 270.535156 200.425781 270.933594 C 199.785156 271.371094 198.058594 274.664062 197.769531 275.996094 C 197.632812 276.609375 197.289062 277.449219 197.019531 277.855469 C 196.746094 278.261719 196.464844 278.863281 196.394531 279.183594 C 196.320312 279.503906 195.980469 280.144531 195.628906 280.621094 C 195.273438 281.097656 194.855469 281.898438 194.691406 282.386719 C 194.527344 282.875 194.289062 283.34375 194.160156 283.433594 C 194.027344 283.523438 193.859375 283.8125 193.769531 284.074219 C 193.679688 284.335938 193.496094 284.605469 193.378906 284.683594 C 193.257812 284.761719 193.019531 285.226562 192.832031 285.699219 C 192.542969 286.421875 192.035156 287.101562 190.316406 289.136719 C 189.972656 289.542969 189.417969 292.40625 189.425781 293.746094 C 189.429688 294.9375 188.914062 297.878906 188.128906 301.136719 C 187.667969 303.046875 187.660156 305.457031 188.128906 306.699219 C 189.03125 309.101562 188.898438 310.679688 187.644531 311.761719 C 186.03125 313.148438 185.496094 314.398438 185.691406 316.386719 C 185.730469 316.808594 185.609375 317.269531 185.363281 317.542969 C 184.339844 318.664062 182.738281 322.90625 182.457031 325.246094 C 182.238281 327.042969 182.3125 329.582031 182.628906 331.105469 C 184.105469 338.269531 184.679688 339.683594 186.816406 341.339844 C 190.394531 344.109375 195.035156 343.601562 198.128906 340.089844 C 199.429688 338.609375 200.066406 336.972656 201.410156 331.496094 C 201.660156 330.476562 201.925781 329.527344 202.003906 329.371094 C 202.339844 328.691406 202.550781 324.671875 202.332031 323.011719 C 202.121094 321.410156 202.289062 319.933594 202.738281 319.636719 C 202.933594 319.507812 204.128906 317.230469 204.582031 316.121094 C 204.785156 315.621094 205.324219 314.808594 205.785156 314.339844 C 206.710938 313.394531 207.273438 312.523438 207.332031 311.917969 C 207.351562 311.699219 207.46875 311.457031 207.597656 311.371094 C 207.726562 311.285156 207.828125 310.988281 207.816406 310.714844 C 207.804688 310.441406 208.0625 309.761719 208.394531 309.199219 C 208.726562 308.636719 208.992188 308.070312 208.988281 307.949219 C 208.980469 307.824219 209.230469 307.304688 209.535156 306.792969 C 209.839844 306.28125 210.164062 305.523438 210.253906 305.105469 C 210.59375 303.488281 210.734375 303.058594 211.222656 302.183594 C 211.5 301.683594 211.734375 301.058594 211.738281 300.792969 C 211.742188 300.527344 211.84375 300.234375 211.972656 300.152344 C 212.277344 299.945312 214.628906 299.980469 215.863281 300.199219 C 216.40625 300.292969 217.28125 300.324219 217.816406 300.261719 C 218.46875 300.183594 219.042969 300.269531 219.582031 300.574219 C 220.019531 300.820312 221.019531 301.097656 221.785156 301.183594 C 222.550781 301.269531 224.257812 301.550781 225.597656 301.808594 C 226.933594 302.066406 228.53125 302.296875 229.144531 302.324219 C 230.449219 302.375 230.222656 301.9375 231.707031 306.980469 C 232.84375 310.851562 233.828125 313.449219 235.035156 315.652344 C 235.589844 316.667969 235.832031 317.339844 235.910156 318.246094 C 236.035156 319.738281 236.96875 321.695312 238.410156 323.449219 C 239.402344 324.660156 239.941406 325.753906 240.222656 327.121094 C 240.765625 329.769531 241.796875 331.726562 243.191406 332.808594 C 244.300781 333.667969 244.300781 333.671875 245.269531 337.058594 C 245.933594 339.382812 246.214844 340.726562 246.144531 341.339844 C 246.015625 342.4375 246.214844 343.046875 247.066406 344.042969 C 247.761719 344.859375 249.414062 345.902344 250.128906 345.980469 C 250.605469 346.03125 251.503906 347.242188 251.847656 348.292969 C 251.960938 348.648438 252.015625 349.71875 251.957031 350.667969 C 251.894531 351.617188 251.863281 352.421875 251.894531 352.464844 C 251.921875 352.507812 252.046875 353.191406 252.175781 353.980469 C 252.304688 354.765625 252.699219 356.167969 253.035156 357.105469 C 253.371094 358.042969 253.964844 359.949219 254.363281 361.355469 C 255.355469 364.851562 256.804688 369.523438 257.707031 372.089844 C 258.117188 373.265625 258.746094 375.441406 259.097656 376.933594 C 259.808594 379.972656 260.550781 381.703125 262.363281 384.402344 C 265.101562 388.492188 268.507812 390.3125 272.582031 389.886719 C 274.113281 389.726562 274.242188 389.683594 276.066406 388.464844 C 279.074219 386.457031 280 384.242188 279.441406 380.433594 C 279.15625 378.488281 279.152344 378.480469 277.253906 375.605469 C 275.421875 372.835938 274.90625 371.792969 274.550781 370.136719 C 274.351562 369.226562 272.785156 366.207031 272.222656 365.636719 C 272.003906 365.417969 271.539062 364.582031 271.175781 363.808594 C 268.59375 358.285156 266.953125 355.320312 264.644531 351.871094 C 262.257812 348.308594 262.273438 348.300781 262.816406 346.386719 C 263.453125 344.136719 263.609375 342.039062 263.269531 340.730469 C 263.132812 340.214844 263.058594 339.601562 263.082031 339.371094 C 263.226562 338.015625 261.511719 333.121094 259.082031 327.964844 C 258.464844 326.652344 257.941406 325.476562 257.910156 325.339844 C 257.875 325.191406 258.488281 324.617188 259.472656 323.886719 C 260.84375 322.867188 261.234375 322.457031 261.925781 321.324219 C 262.746094 319.980469 262.753906 319.988281 264.097656 319.933594 C 266.8125 319.824219 267.746094 319.464844 271.066406 317.277344 C 274.726562 314.867188 275.347656 314.125 275.925781 311.417969 C 276.53125 308.589844 276.21875 307.054688 274.519531 304.480469 C 273.757812 303.328125 273.089844 302.105469 273.019531 301.761719 C 272.949219 301.421875 272.761719 300.964844 272.628906 300.761719 C 272.261719 300.214844 272.460938 299.449219 273.066406 299.042969 C 273.503906 298.75 273.976562 298.75 275.628906 299.105469 C 279.699219 299.980469 281.207031 298.984375 282.332031 294.652344 C 282.691406 293.269531 283.015625 292.542969 283.582031 291.871094 C 284.65625 290.59375 285.105469 289.792969 285.050781 289.261719 C 285.023438 289.007812 285.105469 288.730469 285.222656 288.652344 C 285.46875 288.488281 285.691406 286.539062 285.613281 285.277344 C 285.550781 284.289062 285.5625 284.257812 286.566406 284.136719 C 287.863281 283.976562 290.273438 282.429688 291.269531 281.105469 C 292.730469 279.164062 293.4375 276.390625 293.082031 273.980469 C 292.988281 273.351562 292.90625 272.277344 292.878906 271.605469 C 292.792969 269.433594 292.570312 268.933594 290.425781 265.714844 C 286.519531 259.859375 285.097656 258.03125 283.894531 257.324219 C 282.878906 256.730469 280.925781 256.371094 280.457031 256.683594 C 280.054688 256.953125 279.265625 256.527344 277.738281 255.230469 C 275.777344 253.566406 273.800781 252.515625 272.566406 252.480469 C 272.265625 252.472656 271.546875 252.183594 270.972656 251.824219 C 270.398438 251.46875 269.335938 251.058594 268.628906 250.917969 C 267.664062 250.726562 267.269531 250.535156 267.003906 250.136719 C 266.339844 249.148438 265.023438 248.019531 264.082031 247.636719 C 263.191406 247.277344 263.054688 247.132812 261.441406 244.871094 C 259.582031 242.265625 259.046875 241.816406 256.675781 240.808594 C 255.597656 240.351562 255.359375 240.136719 253.535156 237.980469 C 249.792969 233.554688 249.242188 232.941406 248.269531 232.214844 C 247.066406 231.320312 245.164062 230.617188 242.019531 229.917969 C 240.84375 229.660156 239.933594 229.53125 239.097656 229.542969 Z M 304.332031 265.699219 C 304.195312 265.695312 304.042969 265.707031 303.910156 265.714844 C 303.753906 265.722656 303.605469 265.722656 303.457031 265.746094 C 302.464844 265.902344 300.757812 267.273438 300.113281 268.417969 C 298.882812 270.601562 299.855469 274.664062 302.410156 278.011719 C 304.882812 281.257812 308.25 282.53125 313.472656 282.199219 C 314.78125 282.117188 316.109375 282.078125 316.410156 282.121094 C 317.453125 282.269531 320.644531 282.152344 322.238281 281.902344 C 323.117188 281.761719 324.265625 281.714844 324.769531 281.777344 C 325.273438 281.839844 326.117188 281.851562 326.644531 281.824219 C 327.171875 281.796875 327.84375 281.8125 328.144531 281.855469 C 328.445312 281.894531 329.527344 281.851562 330.550781 281.746094 C 333.210938 281.476562 333.71875 281.519531 334.441406 282.152344 C 335.261719 282.875 335.269531 282.875 336.472656 281.746094 C 337.269531 280.996094 337.632812 280.769531 338.066406 280.730469 C 338.566406 280.683594 338.648438 280.5625 338.925781 279.667969 C 339.289062 278.484375 338.949219 277.394531 337.582031 275.355469 C 335.71875 272.578125 334.335938 272.089844 330.113281 272.730469 C 329.929688 272.757812 329.089844 272.46875 328.253906 272.074219 C 326.246094 271.132812 321.945312 270.195312 315.894531 269.386719 C 313.542969 269.074219 308.050781 267.308594 306.972656 266.527344 C 306.289062 266.035156 305.292969 265.730469 304.332031 265.699219 Z M 294.550781 301.84375 C 294.039062 301.847656 293.582031 301.914062 293.425781 302.015625 C 292.554688 302.597656 292.746094 307.8125 293.660156 308.390625 C 294.21875 308.742188 297.15625 311.035156 298.535156 312.203125 C 299.285156 312.835938 299.503906 313.125 299.582031 313.578125 C 299.703125 314.289062 300.988281 315.550781 303.347656 317.203125 C 306.992188 319.757812 310.777344 322.914062 311.222656 323.78125 C 311.605469 324.523438 312.917969 325.949219 314.738281 327.59375 C 315.089844 327.910156 316.257812 328.636719 317.316406 329.21875 C 319.242188 330.28125 319.242188 330.28125 320.738281 332.75 C 323.136719 336.699219 327.179688 340.59375 332.160156 343.71875 C 334.035156 344.894531 336.902344 345.410156 340.050781 345.125 C 341.71875 344.972656 343.988281 343.308594 344.597656 341.796875 C 345.625 339.261719 344.574219 336.578125 341.316406 333.53125 C 340.519531 332.785156 339.199219 331.355469 338.410156 330.359375 C 336.800781 328.332031 336.113281 327.644531 334.363281 326.34375 C 333.242188 325.511719 332.492188 325.054688 329.800781 323.5625 C 329.238281 323.25 327.109375 321.832031 325.082031 320.421875 C 323.054688 319.011719 320.984375 317.570312 320.472656 317.21875 C 319.960938 316.871094 318.488281 315.710938 317.207031 314.640625 C 314.644531 312.496094 310.113281 309.777344 307.519531 308.8125 C 305.546875 308.082031 305.328125 307.945312 302.910156 306.109375 C 298.019531 302.394531 297.3125 302.019531 295.066406 301.859375 C 294.890625 301.847656 294.722656 301.84375 294.550781 301.84375 Z M 281.019531 323.328125 C 280.402344 323.34375 279.792969 323.691406 278.503906 324.390625 C 277.265625 325.0625 276.234375 325.609375 276.207031 325.609375 C 276.007812 325.589844 276.046875 326.597656 276.253906 326.90625 C 276.441406 327.183594 276.339844 327.777344 275.925781 329 C 275.050781 331.589844 275.222656 332.074219 278.550781 337.078125 C 281.160156 340.996094 281.144531 341.007812 282.144531 341.5 C 282.863281 341.851562 283.195312 342.140625 283.332031 342.515625 C 283.445312 342.824219 283.832031 343.246094 284.269531 343.546875 C 284.839844 343.941406 285.417969 344.679688 286.785156 346.71875 C 288.464844 349.222656 288.597656 349.445312 288.707031 350.484375 C 288.824219 351.570312 288.859375 351.652344 291.582031 355.703125 C 293.101562 357.964844 295.351562 361.160156 296.597656 362.8125 C 297.847656 364.464844 300.5 368.011719 302.488281 370.6875 C 307.464844 377.382812 309.433594 379.230469 312.613281 380.140625 C 316.746094 381.324219 320.792969 377.859375 320.691406 373.21875 C 320.644531 371.132812 320.335938 370.347656 318.535156 367.890625 C 317.6875 366.734375 316.15625 364.632812 315.144531 363.234375 C 314.132812 361.839844 312.796875 360.207031 312.175781 359.59375 C 311.558594 358.984375 310.640625 357.851562 310.128906 357.09375 C 309.339844 355.921875 306.195312 352.652344 305.597656 352.375 C 305.507812 352.332031 304.429688 350.957031 303.207031 349.3125 C 301.328125 346.785156 300.816406 346.207031 299.941406 345.625 C 298.710938 344.804688 295.84375 340.71875 294.347656 337.65625 C 293.621094 336.171875 293.242188 335.625 291.722656 333.875 C 290.746094 332.753906 288.867188 330.296875 287.535156 328.421875 C 285.113281 325.015625 285.105469 325.019531 283.582031 324.28125 C 282.253906 323.640625 281.640625 323.316406 281.019531 323.328125 Z M 281.019531 323.328125 "/>
</g>
</svg>
